<svg height="1358" width="720" xmlns="http://www.w3.org/2000/svg">
<rect height="1358" fill="#555" width="720"></rect>
<text fill="#7f7" font-family="Courier New" font-size="12" xml:space="preserve">
<tspan x="10" y="26">6 megabytes installed</tspan>
<tspan x="10" y="42"></tspan>
<tspan x="10" y="58">node_modules</tspan>
<tspan x="10" y="74">└─┬ chokidar-cli@1.2.0 </tspan>
<tspan x="10" y="90">  ├─┬ anymatch@1.3.0 </tspan>
<tspan x="10" y="106">  │ ├── arrify@1.0.1 </tspan>
<tspan x="10" y="122">  │ └─┬ micromatch@2.3.11 </tspan>
<tspan x="10" y="138">  │   ├─┬ arr-diff@2.0.0 </tspan>
<tspan x="10" y="154">  │   │ └── arr-flatten@1.0.3 </tspan>
<tspan x="10" y="170">  │   ├── array-unique@0.2.1 </tspan>
<tspan x="10" y="186">  │   ├─┬ braces@1.8.5 </tspan>
<tspan x="10" y="202">  │   │ ├─┬ expand-range@1.8.2 </tspan>
<tspan x="10" y="218">  │   │ │ └─┬ fill-range@2.2.3 </tspan>
<tspan x="10" y="234">  │   │ │   ├── is-number@2.1.0 </tspan>
<tspan x="10" y="250">  │   │ │   ├── isobject@2.1.0 </tspan>
<tspan x="10" y="266">  │   │ │   ├── randomatic@1.1.6 </tspan>
<tspan x="10" y="282">  │   │ │   └── repeat-string@1.6.1 </tspan>
<tspan x="10" y="298">  │   │ ├── preserve@0.2.0 </tspan>
<tspan x="10" y="314">  │   │ └── repeat-element@1.1.2 </tspan>
<tspan x="10" y="330">  │   ├─┬ expand-brackets@0.1.5 </tspan>
<tspan x="10" y="346">  │   │ └── is-posix-bracket@0.1.1 </tspan>
<tspan x="10" y="362">  │   ├── extglob@0.3.2 </tspan>
<tspan x="10" y="378">  │   ├── filename-regex@2.0.0 </tspan>
<tspan x="10" y="394">  │   ├── is-extglob@1.0.0 </tspan>
<tspan x="10" y="410">  │   ├─┬ kind-of@3.2.0 </tspan>
<tspan x="10" y="426">  │   │ └── is-buffer@1.1.5 </tspan>
<tspan x="10" y="442">  │   ├─┬ normalize-path@2.1.1 </tspan>
<tspan x="10" y="458">  │   │ └── remove-trailing-separator@1.0.1 </tspan>
<tspan x="10" y="474">  │   ├─┬ object.omit@2.0.1 </tspan>
<tspan x="10" y="490">  │   │ ├─┬ for-own@0.1.5 </tspan>
<tspan x="10" y="506">  │   │ │ └── for-in@1.0.2 </tspan>
<tspan x="10" y="522">  │   │ └── is-extendable@0.1.1 </tspan>
<tspan x="10" y="538">  │   ├─┬ parse-glob@3.0.4 </tspan>
<tspan x="10" y="554">  │   │ ├── glob-base@0.3.0 </tspan>
<tspan x="10" y="570">  │   │ └── is-dotfile@1.0.2 </tspan>
<tspan x="10" y="586">  │   └─┬ regex-cache@0.4.3 </tspan>
<tspan x="10" y="602">  │     ├── is-equal-shallow@0.1.3 </tspan>
<tspan x="10" y="618">  │     └── is-primitive@2.0.0 </tspan>
<tspan x="10" y="634">  ├── bluebird@2.11.0 </tspan>
<tspan x="10" y="650">  ├─┬ chokidar@1.6.1 </tspan>
<tspan x="10" y="666">  │ ├── async-each@1.0.1 </tspan>
<tspan x="10" y="682">  │ ├── glob-parent@2.0.0 </tspan>
<tspan x="10" y="698">  │ ├── inherits@2.0.3 </tspan>
<tspan x="10" y="714">  │ ├─┬ is-binary-path@1.0.1 </tspan>
<tspan x="10" y="730">  │ │ └── binary-extensions@1.8.0 </tspan>
<tspan x="10" y="746">  │ ├── is-glob@2.0.1 </tspan>
<tspan x="10" y="762">  │ ├── path-is-absolute@1.0.1 </tspan>
<tspan x="10" y="778">  │ └─┬ readdirp@2.1.0 </tspan>
<tspan x="10" y="794">  │   ├── graceful-fs@4.1.11 </tspan>
<tspan x="10" y="810">  │   ├─┬ minimatch@3.0.3 </tspan>
<tspan x="10" y="826">  │   │ └─┬ brace-expansion@1.1.7 </tspan>
<tspan x="10" y="842">  │   │   ├── balanced-match@0.4.2 </tspan>
<tspan x="10" y="858">  │   │   └── concat-map@0.0.1 </tspan>
<tspan x="10" y="874">  │   ├─┬ readable-stream@2.2.9 </tspan>
<tspan x="10" y="890">  │   │ ├── buffer-shims@1.0.0 </tspan>
<tspan x="10" y="906">  │   │ ├── core-util-is@1.0.2 </tspan>
<tspan x="10" y="922">  │   │ ├── isarray@1.0.0 </tspan>
<tspan x="10" y="938">  │   │ ├── process-nextick-args@1.0.7 </tspan>
<tspan x="10" y="954">  │   │ ├── string_decoder@1.0.0 </tspan>
<tspan x="10" y="970">  │   │ └── util-deprecate@1.0.2 </tspan>
<tspan x="10" y="986">  │   └── set-immediate-shim@1.0.1 </tspan>
<tspan x="10" y="1002">  ├── lodash@3.10.1 </tspan>
<tspan x="10" y="1018">  ├─┬ shell-quote@1.6.1 </tspan>
<tspan x="10" y="1034">  │ ├── array-filter@0.0.1 </tspan>
<tspan x="10" y="1050">  │ ├── array-map@0.0.0 </tspan>
<tspan x="10" y="1066">  │ ├── array-reduce@0.0.0 </tspan>
<tspan x="10" y="1082">  │ └── jsonify@0.0.0 </tspan>
<tspan x="10" y="1098">  └─┬ yargs@3.32.0 </tspan>
<tspan x="10" y="1114">    ├── camelcase@2.1.1 </tspan>
<tspan x="10" y="1130">    ├─┬ cliui@3.2.0 </tspan>
<tspan x="10" y="1146">    │ ├─┬ strip-ansi@3.0.1 </tspan>
<tspan x="10" y="1162">    │ │ └── ansi-regex@2.1.1 </tspan>
<tspan x="10" y="1178">    │ └── wrap-ansi@2.1.0 </tspan>
<tspan x="10" y="1194">    ├── decamelize@1.2.0 </tspan>
<tspan x="10" y="1210">    ├─┬ os-locale@1.4.0 </tspan>
<tspan x="10" y="1226">    │ └─┬ lcid@1.0.0 </tspan>
<tspan x="10" y="1242">    │   └── invert-kv@1.0.0 </tspan>
<tspan x="10" y="1258">    ├─┬ string-width@1.0.2 </tspan>
<tspan x="10" y="1274">    │ ├── code-point-at@1.1.0 </tspan>
<tspan x="10" y="1290">    │ └─┬ is-fullwidth-code-point@1.0.0 </tspan>
<tspan x="10" y="1306">    │   └── number-is-nan@1.0.1 </tspan>
<tspan x="10" y="1322">    ├── window-size@0.1.4 </tspan>
<tspan x="10" y="1338">    └── y18n@3.2.1</tspan>
</text>
</svg>
